<svg width="725" height="180" viewBox="0 0 725 180" fill="none" xmlns="http://www.w3.org/2000/svg">
<g filter="url(#filter0_d_108_68)">
<rect y="13.4543" width="711" height="152.357" rx="30" fill="#3DD43C"/>
</g>
<path d="M172.958 132.53C168.094 132.53 163.4 131.89 158.878 130.61C154.44 129.33 150.387 127.495 146.718 125.106C145.182 124.082 144.115 122.845 143.518 121.394C142.92 119.858 142.707 118.322 142.878 116.786C143.134 115.25 143.688 113.97 144.542 112.946C145.48 111.837 146.675 111.197 148.126 111.026C149.576 110.77 151.198 111.239 152.99 112.434C156.147 114.397 159.304 115.805 162.462 116.658C165.619 117.511 168.947 117.938 172.446 117.938C178.163 117.938 183.07 116.829 187.166 114.61C191.262 112.306 194.462 108.935 196.766 104.498C199.155 100.061 200.478 94.5567 200.734 87.986L205.598 91.826H165.406C163.187 91.826 161.48 91.2713 160.286 90.162C159.091 89.0527 158.494 87.4313 158.494 85.298C158.494 83.25 159.091 81.6713 160.286 80.562C161.48 79.3673 163.187 78.77 165.406 78.77H205.342L200.606 82.866C200.179 76.8073 198.856 71.6447 196.638 67.378C194.504 63.1113 191.475 59.8687 187.55 57.65C183.624 55.4313 178.846 54.322 173.214 54.322C169.8 54.322 166.472 54.7913 163.23 55.73C160.072 56.5833 157 57.8633 154.014 59.57C152.222 60.6793 150.558 61.1487 149.022 60.978C147.486 60.8073 146.163 60.2527 145.054 59.314C144.03 58.29 143.347 57.0953 143.006 55.73C142.664 54.2793 142.75 52.8287 143.262 51.378C143.859 49.9273 144.968 48.6473 146.59 47.538C150.6 44.8927 154.995 42.93 159.774 41.65C164.552 40.37 169.288 39.73 173.982 39.73C183.198 39.73 191.048 41.65 197.534 45.49C204.104 49.33 209.139 54.706 212.638 61.618C216.136 68.53 217.886 76.6793 217.886 86.066C217.886 93.1487 216.862 99.5487 214.814 105.266C212.766 110.983 209.822 115.89 205.982 119.986C202.142 123.997 197.448 127.111 191.902 129.33C186.355 131.463 180.04 132.53 172.958 132.53ZM255.094 132.274C252.534 132.274 250.528 131.591 249.078 130.226C247.712 128.775 247.03 126.727 247.03 124.082V81.202H231.414C226.806 81.202 224.502 79.1113 224.502 74.93C224.502 72.9673 225.099 71.4313 226.294 70.322C227.574 69.2127 229.28 68.658 231.414 68.658H278.646C283.254 68.658 285.558 70.7487 285.558 74.93C285.558 76.978 284.96 78.5567 283.766 79.666C282.571 80.69 280.864 81.202 278.646 81.202H263.03V124.082C263.03 126.727 262.347 128.775 260.982 130.226C259.702 131.591 257.739 132.274 255.094 132.274ZM315.082 132.53C310.559 132.53 306.506 131.677 302.922 129.97C299.423 128.178 296.65 125.789 294.602 122.802C292.639 119.815 291.658 116.445 291.658 112.69C291.658 108.082 292.852 104.455 295.242 101.81C297.631 99.0793 301.514 97.1167 306.89 95.922C312.266 94.7273 319.476 94.13 328.522 94.13H334.922V103.346H328.65C323.359 103.346 319.135 103.602 315.978 104.114C312.82 104.626 310.559 105.522 309.194 106.802C307.914 107.997 307.274 109.703 307.274 111.922C307.274 114.738 308.255 117.042 310.218 118.834C312.18 120.626 314.911 121.522 318.41 121.522C321.226 121.522 323.7 120.882 325.834 119.602C328.052 118.237 329.802 116.402 331.082 114.098C332.362 111.794 333.002 109.149 333.002 106.162V91.442C333.002 87.1753 332.063 84.1033 330.186 82.226C328.308 80.3487 325.151 79.41 320.714 79.41C318.239 79.41 315.551 79.7087 312.65 80.306C309.834 80.9033 306.847 81.9273 303.69 83.378C302.068 84.146 300.618 84.3593 299.338 84.018C298.143 83.6767 297.204 82.994 296.522 81.97C295.839 80.8607 295.498 79.666 295.498 78.386C295.498 77.106 295.839 75.8687 296.522 74.674C297.204 73.394 298.356 72.4553 299.978 71.858C303.903 70.2367 307.658 69.0847 311.242 68.402C314.911 67.7193 318.239 67.378 321.226 67.378C327.37 67.378 332.404 68.3167 336.33 70.194C340.34 72.0713 343.327 74.93 345.29 78.77C347.252 82.5247 348.234 87.3887 348.234 93.362V124.082C348.234 126.727 347.594 128.775 346.314 130.226C345.034 131.591 343.199 132.274 340.81 132.274C338.42 132.274 336.543 131.591 335.178 130.226C333.898 128.775 333.258 126.727 333.258 124.082V117.938H334.282C333.684 120.925 332.49 123.527 330.698 125.746C328.991 127.879 326.815 129.543 324.17 130.738C321.524 131.933 318.495 132.53 315.082 132.53ZM409.872 132.274C407.312 132.274 405.349 131.591 403.984 130.226C402.618 128.775 401.936 126.727 401.936 124.082V105.394H395.536C393.658 105.394 392.037 105.607 390.672 106.034C389.392 106.461 388.197 107.229 387.088 108.338C386.064 109.362 384.997 110.855 383.888 112.818L375.312 127.794C374.288 129.586 373.008 130.781 371.472 131.378C369.936 132.061 368.4 132.231 366.864 131.89C365.328 131.634 363.962 131.037 362.768 130.098C361.658 129.074 360.933 127.837 360.592 126.386C360.336 124.85 360.72 123.186 361.744 121.394L369.424 107.954C370.96 105.223 372.496 102.962 374.032 101.17C375.653 99.2927 377.36 97.842 379.152 96.818C381.029 95.794 383.12 95.154 385.424 94.898L382.48 100.018L366.992 79.282C365.797 77.6607 365.2 76.1247 365.2 74.674C365.2 73.138 365.626 71.8153 366.48 70.706C367.418 69.5967 368.57 68.8287 369.936 68.402C371.301 67.9753 372.709 67.9753 374.16 68.402C375.696 68.8287 377.061 69.8527 378.256 71.474L394.384 92.978H401.936V75.954C401.936 73.3087 402.618 71.3033 403.984 69.938C405.349 68.4873 407.312 67.762 409.872 67.762C412.432 67.762 414.394 68.4873 415.76 69.938C417.21 71.3033 417.936 73.3087 417.936 75.954V92.978H425.488L441.488 71.474C442.682 69.8527 444.048 68.8287 445.584 68.402C447.12 67.89 448.57 67.8473 449.936 68.274C451.301 68.7007 452.41 69.4687 453.264 70.578C454.202 71.6873 454.672 73.01 454.672 74.546C454.672 75.9967 454.074 77.5327 452.88 79.154L437.392 100.018L434.32 94.898C436.624 95.154 438.672 95.794 440.464 96.818C442.341 97.842 444.09 99.2927 445.712 101.17C447.333 102.962 448.912 105.223 450.448 107.954L458 121.394C459.024 123.186 459.365 124.85 459.024 126.386C458.768 127.837 458.042 129.074 456.848 130.098C455.738 131.037 454.416 131.634 452.88 131.89C451.344 132.231 449.808 132.061 448.272 131.378C446.821 130.781 445.584 129.586 444.56 127.794L435.984 112.818C434.874 110.855 433.765 109.362 432.656 108.338C431.632 107.229 430.437 106.461 429.072 106.034C427.792 105.607 426.213 105.394 424.336 105.394H417.936V124.082C417.936 126.727 417.21 128.775 415.76 130.226C414.394 131.591 412.432 132.274 409.872 132.274ZM517.476 131.25C515.257 131.25 513.508 130.653 512.228 129.458C511.033 128.178 510.436 126.471 510.436 124.338C510.436 122.119 511.033 120.455 512.228 119.346C513.508 118.237 515.257 117.682 517.476 117.682H531.812V54.834H539.748L520.932 66.226C519.31 67.1647 517.774 67.5487 516.324 67.378C514.958 67.122 513.764 66.5247 512.74 65.586C511.801 64.562 511.161 63.3673 510.82 62.002C510.478 60.6367 510.564 59.2713 511.076 57.906C511.673 56.4553 512.782 55.2607 514.404 54.322L532.068 43.698C533.774 42.674 535.481 41.8207 537.188 41.138C538.894 40.37 540.473 39.986 541.924 39.986C543.716 39.986 545.209 40.498 546.404 41.522C547.598 42.4607 548.196 44.0393 548.196 46.258V117.682H561.252C563.47 117.682 565.177 118.237 566.372 119.346C567.652 120.455 568.292 122.119 568.292 124.338C568.292 126.557 567.652 128.263 566.372 129.458C565.177 130.653 563.47 131.25 561.252 131.25H517.476Z" fill="#CEBA00"/>
<path d="M158.878 130.61L158.046 133.492L158.054 133.495L158.061 133.497L158.878 130.61ZM146.718 125.106L145.054 127.602L145.067 127.611L145.081 127.62L146.718 125.106ZM143.518 121.394L140.722 122.481L140.733 122.509L140.744 122.536L143.518 121.394ZM142.878 116.786L139.919 116.293L139.905 116.373L139.896 116.455L142.878 116.786ZM144.542 112.946L142.252 111.008L142.244 111.017L142.237 111.025L144.542 112.946ZM148.126 111.026L148.476 114.005L148.562 113.995L148.647 113.98L148.126 111.026ZM152.99 112.434L151.326 114.93L151.365 114.957L151.406 114.982L152.99 112.434ZM162.462 116.658L163.245 113.762L163.245 113.762L162.462 116.658ZM187.166 114.61L188.595 117.248L188.616 117.236L188.637 117.225L187.166 114.61ZM196.766 104.498L194.124 103.076L194.114 103.096L194.103 103.116L196.766 104.498ZM200.734 87.986L202.593 85.6313L197.966 81.9783L197.736 87.8692L200.734 87.986ZM205.598 91.826V94.826H214.239L207.457 89.4713L205.598 91.826ZM160.286 90.162L158.244 92.3604L158.244 92.3604L160.286 90.162ZM160.286 80.562L162.327 82.7604L162.368 82.7226L162.407 82.6833L160.286 80.562ZM205.342 78.77L207.304 81.0391L213.397 75.77H205.342V78.77ZM200.606 82.866L197.613 83.0767L198.034 89.0563L202.568 85.1351L200.606 82.866ZM196.638 67.378L193.955 68.7196L193.965 68.7409L193.976 68.7621L196.638 67.378ZM187.55 57.65L189.026 55.0383L189.026 55.0383L187.55 57.65ZM163.23 55.73L164.013 58.6261L164.038 58.6191L164.064 58.6117L163.23 55.73ZM154.014 59.57L152.525 56.9653L152.48 56.9914L152.435 57.0192L154.014 59.57ZM149.022 60.978L149.353 57.9963L149.353 57.9963L149.022 60.978ZM145.054 59.314L142.932 61.4353L143.021 61.5236L143.116 61.6042L145.054 59.314ZM143.006 55.73L140.086 56.4171L140.09 56.4374L140.095 56.4576L143.006 55.73ZM143.262 51.378L140.488 50.2358L140.458 50.3069L140.433 50.3795L143.262 51.378ZM146.59 47.538L144.938 45.0337L144.917 45.0477L144.896 45.0621L146.59 47.538ZM159.774 41.65L158.998 38.7521L158.998 38.7521L159.774 41.65ZM197.534 45.49L196.005 48.0714L196.013 48.0758L196.02 48.0801L197.534 45.49ZM212.638 61.618L215.314 60.2632L215.314 60.2632L212.638 61.618ZM214.814 105.266L217.638 106.278L217.638 106.278L214.814 105.266ZM205.982 119.986L208.149 122.061L208.16 122.049L208.17 122.038L205.982 119.986ZM191.902 129.33L192.979 132.13L192.997 132.123L193.016 132.115L191.902 129.33ZM172.958 129.53C168.36 129.53 163.942 128.926 159.695 127.723L158.061 133.497C162.858 134.854 167.827 135.53 172.958 135.53V129.53ZM159.709 127.728C155.542 126.525 151.762 124.811 148.355 122.592L145.081 127.62C149.012 130.18 153.339 132.135 158.046 133.492L159.709 127.728ZM148.382 122.61C147.253 121.857 146.624 121.059 146.292 120.252L140.744 122.536C141.606 124.63 143.111 126.307 145.054 127.602L148.382 122.61ZM146.314 120.307C145.88 119.191 145.746 118.141 145.859 117.117L139.896 116.455C139.669 118.503 139.961 120.525 140.722 122.481L146.314 120.307ZM145.837 117.279C146.02 116.179 146.388 115.417 146.846 114.867L142.237 111.025C140.989 112.523 140.247 114.321 139.919 116.293L145.837 117.279ZM146.832 114.884C147.277 114.358 147.777 114.088 148.476 114.005L147.775 108.047C145.574 108.306 143.684 109.315 142.252 111.008L146.832 114.884ZM148.647 113.98C149.049 113.909 149.882 113.968 151.326 114.93L154.654 109.938C152.514 108.511 150.104 107.631 147.604 108.072L148.647 113.98ZM151.406 114.982C154.779 117.078 158.204 118.615 161.679 119.554L163.245 113.762C160.405 112.995 157.516 111.715 154.574 109.886L151.406 114.982ZM161.679 119.554C165.109 120.481 168.701 120.938 172.446 120.938V114.938C169.193 114.938 166.13 114.542 163.245 113.762L161.679 119.554ZM172.446 120.938C178.55 120.938 183.971 119.752 188.595 117.248L185.737 111.972C182.169 113.905 177.776 114.938 172.446 114.938V120.938ZM188.637 117.225C193.274 114.616 196.873 110.801 199.428 105.88L194.103 103.116C192.05 107.07 189.249 109.996 185.695 111.995L188.637 117.225ZM199.407 105.92C202.069 100.977 203.463 94.9963 203.732 88.1028L197.736 87.8692C197.493 94.1171 196.241 99.144 194.124 103.076L199.407 105.92ZM198.875 90.3406L203.739 94.1806L207.457 89.4713L202.593 85.6313L198.875 90.3406ZM205.598 88.826H165.406V94.826H205.598V88.826ZM165.406 88.826C163.667 88.826 162.793 88.3959 162.327 87.9636L158.244 92.3604C160.168 94.1468 162.707 94.826 165.406 94.826V88.826ZM162.327 87.9636C161.917 87.5832 161.494 86.868 161.494 85.298H155.494C155.494 87.9947 156.265 90.5222 158.244 92.3604L162.327 87.9636ZM161.494 85.298C161.494 83.8561 161.893 83.1635 162.327 82.7604L158.244 78.3636C156.289 80.1791 155.494 82.6439 155.494 85.298H161.494ZM162.407 82.6833C162.879 82.2111 163.724 81.77 165.406 81.77V75.77C162.65 75.77 160.082 76.5236 158.164 78.4407L162.407 82.6833ZM165.406 81.77H205.342V75.77H165.406V81.77ZM203.379 76.5009L198.643 80.5969L202.568 85.1351L207.304 81.0391L203.379 76.5009ZM203.598 82.6553C203.15 76.2909 201.75 70.7072 199.299 65.9939L193.976 68.7621C195.963 72.5821 197.208 77.3238 197.613 83.0767L203.598 82.6553ZM199.321 66.0364C196.937 61.2683 193.502 57.5682 189.026 55.0383L186.074 60.2617C189.448 62.1691 192.072 64.9544 193.955 68.7196L199.321 66.0364ZM189.026 55.0383C184.551 52.5091 179.236 51.322 173.214 51.322V57.322C178.456 57.322 182.698 58.3535 186.074 60.2617L189.026 55.0383ZM173.214 51.322C169.521 51.322 165.912 51.8303 162.396 52.8483L164.064 58.6117C167.032 57.7524 170.08 57.322 173.214 57.322V51.322ZM162.447 52.8339C159.031 53.7573 155.722 55.1384 152.525 56.9653L155.502 62.1747C158.278 60.5883 161.114 59.4094 164.013 58.6261L162.447 52.8339ZM152.435 57.0192C151.008 57.9025 150.016 58.07 149.353 57.9963L148.691 63.9596C151.1 64.2273 153.436 63.4561 155.593 62.1208L152.435 57.0192ZM149.353 57.9963C148.37 57.8871 147.617 57.5526 146.992 57.0238L143.116 61.6042C144.71 62.9527 146.602 63.7276 148.691 63.9596L149.353 57.9963ZM147.175 57.1927C146.524 56.5415 146.122 55.8244 145.916 55.0024L140.095 56.4576C140.573 58.3663 141.536 60.0385 142.932 61.4353L147.175 57.1927ZM145.926 55.0429C145.721 54.17 145.763 53.304 146.091 52.3765L140.433 50.3795C139.736 52.3533 139.608 54.3887 140.086 56.4171L145.926 55.0429ZM146.036 52.5202C146.361 51.7315 147.023 50.8765 148.284 50.0139L144.896 45.0621C142.914 46.4182 141.358 48.1231 140.488 50.2358L146.036 52.5202ZM148.242 50.0423C151.975 47.5796 156.073 45.747 160.55 44.5478L158.998 38.7521C153.917 40.113 149.225 42.2058 144.938 45.0337L148.242 50.0423ZM160.55 44.5478C165.089 43.332 169.564 42.73 173.982 42.73V36.73C169.013 36.73 164.016 37.408 158.998 38.7521L160.55 44.5478ZM173.982 42.73C182.779 42.73 190.076 44.5605 196.005 48.0714L199.062 42.9086C192.021 38.7395 183.616 36.73 173.982 36.73V42.73ZM196.02 48.0801C202.083 51.6233 206.718 56.5661 209.961 62.9728L215.314 60.2632C211.56 52.8459 206.126 47.0367 199.048 42.8999L196.02 48.0801ZM209.961 62.9728C213.207 69.3851 214.886 77.0517 214.886 86.066H220.886C220.886 76.307 219.066 67.6749 215.314 60.2632L209.961 62.9728ZM214.886 86.066C214.886 92.86 213.904 98.9106 211.99 104.254L217.638 106.278C219.82 100.187 220.886 93.4373 220.886 86.066H214.886ZM211.99 104.254C210.069 109.617 207.33 114.162 203.793 117.934L208.17 122.038C212.314 117.618 215.463 112.35 217.638 106.278L211.99 104.254ZM203.815 117.911C200.293 121.59 195.967 124.473 190.788 126.545L193.016 132.115C198.93 129.75 203.991 126.404 208.149 122.061L203.815 117.911ZM190.825 126.53C185.681 128.508 179.741 129.53 172.958 129.53V135.53C180.34 135.53 187.029 134.418 192.979 132.13L190.825 126.53ZM249.078 130.226L246.893 132.282L246.956 132.348L247.022 132.411L249.078 130.226ZM247.03 81.202H250.03V78.202H247.03V81.202ZM226.294 70.322L224.329 68.0549L224.29 68.0886L224.252 68.1236L226.294 70.322ZM283.766 79.666L285.718 81.9438L285.763 81.905L285.807 81.8644L283.766 79.666ZM263.03 81.202V78.202H260.03V81.202H263.03ZM260.982 130.226L258.797 128.17L258.793 128.174L260.982 130.226ZM255.094 129.274C253.072 129.274 251.883 128.746 251.134 128.041L247.022 132.411C249.174 134.436 251.995 135.274 255.094 135.274V129.274ZM251.262 128.17C250.574 127.438 250.03 126.22 250.03 124.082H244.03C244.03 127.235 244.851 130.112 246.893 132.282L251.262 128.17ZM250.03 124.082V81.202H244.03V124.082H250.03ZM247.03 78.202H231.414V84.202H247.03V78.202ZM231.414 78.202C229.504 78.202 228.632 77.7625 228.246 77.4123C227.915 77.1123 227.502 76.479 227.502 74.93H221.502C221.502 77.5623 222.24 80.065 224.214 81.8557C226.132 83.5962 228.716 84.202 231.414 84.202V78.202ZM227.502 74.93C227.502 73.6175 227.875 72.9479 228.335 72.5204L224.252 68.1236C222.324 69.9147 221.502 72.3171 221.502 74.93H227.502ZM228.259 72.5891C228.863 72.0652 229.809 71.658 231.414 71.658V65.658C228.752 65.658 226.285 66.3601 224.329 68.0549L228.259 72.5891ZM231.414 71.658H278.646V65.658H231.414V71.658ZM278.646 71.658C280.556 71.658 281.428 72.0975 281.814 72.4477C282.144 72.7477 282.558 73.381 282.558 74.93H288.558C288.558 72.2977 287.819 69.795 285.846 68.0043C283.928 66.2638 281.344 65.658 278.646 65.658V71.658ZM282.558 74.93C282.558 76.3719 282.159 77.0644 281.724 77.4676L285.807 81.8644C287.762 80.0489 288.558 77.5841 288.558 74.93H282.558ZM281.813 77.3882C281.349 77.7866 280.439 78.202 278.646 78.202V84.202C281.29 84.202 283.794 83.5933 285.718 81.9438L281.813 77.3882ZM278.646 78.202H263.03V84.202H278.646V78.202ZM260.03 81.202V124.082H266.03V81.202H260.03ZM260.03 124.082C260.03 126.22 259.486 127.438 258.797 128.17L263.166 132.282C265.208 130.112 266.03 127.235 266.03 124.082H260.03ZM258.793 128.174C258.282 128.719 257.26 129.274 255.094 129.274V135.274C258.218 135.274 261.121 134.463 263.17 132.278L258.793 128.174ZM302.922 129.97L301.554 132.64L301.593 132.66L301.632 132.679L302.922 129.97ZM294.602 122.802L292.095 124.45L292.111 124.474L292.128 124.499L294.602 122.802ZM295.242 101.81L297.468 103.821L297.484 103.803L297.5 103.786L295.242 101.81ZM306.89 95.922L307.541 98.8506L307.541 98.8506L306.89 95.922ZM334.922 94.13H337.922V91.13H334.922V94.13ZM334.922 103.346V106.346H337.922V103.346H334.922ZM309.194 106.802L311.241 108.995L311.246 108.991L309.194 106.802ZM310.218 118.834L308.195 121.049L308.195 121.049L310.218 118.834ZM325.834 119.602L327.377 122.174L327.392 122.166L327.406 122.157L325.834 119.602ZM331.082 114.098L328.459 112.641L328.459 112.641L331.082 114.098ZM330.186 82.226L328.064 84.3473L328.064 84.3473L330.186 82.226ZM312.65 80.306L312.045 77.3676L312.036 77.3694L312.027 77.3713L312.65 80.306ZM303.69 83.378L302.437 80.652L302.421 80.6593L302.406 80.6668L303.69 83.378ZM299.338 84.018L298.514 86.9026L298.539 86.9099L298.565 86.9167L299.338 84.018ZM296.522 81.97L293.967 83.5423L293.995 83.5887L294.026 83.6341L296.522 81.97ZM296.522 74.674L299.127 76.1624L299.148 76.1244L299.169 76.0858L296.522 74.674ZM299.978 71.858L301.015 74.673L301.069 74.653L301.123 74.6308L299.978 71.858ZM311.242 68.402L310.693 65.4526L310.68 65.455L311.242 68.402ZM336.33 70.194L335.035 72.9004L335.047 72.9058L335.058 72.9111L336.33 70.194ZM345.29 78.77L342.618 80.1353L342.625 80.1476L342.631 80.1598L345.29 78.77ZM346.314 130.226L348.502 132.278L348.533 132.245L348.563 132.211L346.314 130.226ZM335.178 130.226L332.928 132.211L332.99 132.281L333.056 132.347L335.178 130.226ZM333.258 117.938V114.938H330.258V117.938H333.258ZM334.282 117.938L337.224 118.526L337.941 114.938H334.282V117.938ZM330.698 125.746L328.364 123.861L328.355 123.872L330.698 125.746ZM324.17 130.738L325.405 133.472L325.405 133.472L324.17 130.738ZM315.082 129.53C310.943 129.53 307.34 128.751 304.212 127.261L301.632 132.679C305.672 134.602 310.175 135.53 315.082 135.53V129.53ZM304.289 127.3C301.196 125.715 298.818 123.646 297.076 121.105L292.128 124.499C294.482 127.931 297.65 130.641 301.554 132.64L304.289 127.3ZM297.109 121.154C295.485 118.683 294.658 115.89 294.658 112.69H288.658C288.658 116.999 289.794 120.948 292.095 124.45L297.109 121.154ZM294.658 112.69C294.658 108.601 295.709 105.769 297.468 103.821L293.015 99.7991C289.996 103.142 288.658 107.563 288.658 112.69H294.658ZM297.5 103.786C299.301 101.727 302.483 99.9744 307.541 98.8506L306.239 92.9934C300.544 94.2589 295.961 96.4321 292.984 99.8345L297.5 103.786ZM307.541 98.8506C312.611 97.7238 319.575 97.13 328.522 97.13V91.13C319.378 91.13 311.921 91.7308 306.239 92.9934L307.541 98.8506ZM328.522 97.13H334.922V91.13H328.522V97.13ZM331.922 94.13V103.346H337.922V94.13H331.922ZM334.922 100.346H328.65V106.346H334.922V100.346ZM328.65 100.346C323.288 100.346 318.883 100.604 315.498 101.153L316.458 107.075C319.388 106.6 323.431 106.346 328.65 106.346V100.346ZM315.498 101.153C312.123 101.7 309.154 102.727 307.142 104.613L311.246 108.991C311.964 108.317 313.518 107.552 316.458 107.075L315.498 101.153ZM307.147 104.609C305.105 106.514 304.274 109.108 304.274 111.922H310.274C310.274 110.299 310.722 109.479 311.241 108.995L307.147 104.609ZM304.274 111.922C304.274 115.524 305.569 118.652 308.195 121.049L312.241 116.619C310.941 115.432 310.274 113.952 310.274 111.922H304.274ZM308.195 121.049C310.867 123.489 314.405 124.522 318.41 124.522V118.522C315.417 118.522 313.494 117.763 312.241 116.619L308.195 121.049ZM318.41 124.522C321.696 124.522 324.719 123.77 327.377 122.174L324.29 117.03C322.682 117.994 320.755 118.522 318.41 118.522V124.522ZM327.406 122.157C330.069 120.519 332.177 118.303 333.704 115.555L328.459 112.641C327.426 114.501 326.036 115.955 324.262 117.047L327.406 122.157ZM333.704 115.555C335.263 112.749 336.002 109.59 336.002 106.162H330.002C330.002 108.708 329.46 110.839 328.459 112.641L333.704 115.555ZM336.002 106.162V91.442H330.002V106.162H336.002ZM336.002 91.442C336.002 86.8436 335.007 82.8044 332.307 80.1047L328.064 84.3473C329.119 85.4023 330.002 87.507 330.002 91.442H336.002ZM332.307 80.1047C329.59 77.3875 325.442 76.41 320.714 76.41V82.41C324.86 82.41 327.027 83.3098 328.064 84.3473L332.307 80.1047ZM320.714 76.41C318.001 76.41 315.108 76.737 312.045 77.3676L313.255 83.2444C315.995 82.6803 318.477 82.41 320.714 82.41V76.41ZM312.027 77.3713C308.955 78.023 305.756 79.127 302.437 80.652L304.942 86.104C307.938 84.7276 310.713 83.7837 313.272 83.2407L312.027 77.3713ZM302.406 80.6668C301.198 81.2388 300.495 81.2217 300.111 81.1193L298.565 86.9167C300.741 87.497 302.939 87.0532 304.974 86.0892L302.406 80.6668ZM300.162 81.1334C299.645 80.9856 299.302 80.7314 299.018 80.3059L294.026 83.6341C295.107 85.2566 296.642 86.3677 298.514 86.9026L300.162 81.1334ZM299.077 80.3977C298.68 79.7524 298.498 79.1006 298.498 78.386H292.498C292.498 80.2314 292.999 81.9689 293.967 83.5423L299.077 80.3977ZM298.498 78.386C298.498 77.6671 298.683 76.9389 299.127 76.1624L293.917 73.1856C292.995 74.7984 292.498 76.5449 292.498 78.386H298.498ZM299.169 76.0858C299.441 75.5751 299.945 75.0672 301.015 74.673L298.941 69.043C296.768 69.8435 294.968 71.2129 293.875 73.2622L299.169 76.0858ZM301.123 74.6308C304.89 73.0749 308.449 71.988 311.803 71.349L310.68 65.455C306.867 66.1814 302.916 67.3985 298.833 69.0852L301.123 74.6308ZM311.791 71.3514C315.322 70.6945 318.462 70.378 321.226 70.378V64.378C318.016 64.378 314.501 64.7442 310.693 65.4526L311.791 71.3514ZM321.226 70.378C327.094 70.378 331.645 71.279 335.035 72.9004L337.624 67.4876C333.164 65.3543 327.645 64.378 321.226 64.378V70.378ZM335.058 72.9111C338.482 74.514 340.968 76.9059 342.618 80.1353L347.961 77.4047C345.686 72.9541 342.198 69.6287 337.602 67.4769L335.058 72.9111ZM342.631 80.1598C344.297 83.3461 345.234 87.6861 345.234 93.362H351.234C351.234 87.0912 350.208 81.7032 347.948 77.3802L342.631 80.1598ZM345.234 93.362V124.082H351.234V93.362H345.234ZM345.234 124.082C345.234 126.266 344.708 127.512 344.064 128.241L348.563 132.211C350.48 130.039 351.234 127.188 351.234 124.082H345.234ZM344.125 128.174C343.56 128.777 342.613 129.274 340.81 129.274V135.274C343.785 135.274 346.508 134.405 348.502 132.278L344.125 128.174ZM340.81 129.274C339.016 129.274 337.975 128.78 337.299 128.105L333.056 132.347C335.112 134.403 337.825 135.274 340.81 135.274V129.274ZM337.427 128.241C336.784 127.512 336.258 126.266 336.258 124.082H330.258C330.258 127.188 331.012 130.039 332.928 132.211L337.427 128.241ZM336.258 124.082V117.938H330.258V124.082H336.258ZM333.258 120.938H334.282V114.938H333.258V120.938ZM331.34 117.35C330.831 119.895 329.831 122.045 328.364 123.861L333.032 127.631C335.149 125.01 336.538 121.955 337.224 118.526L331.34 117.35ZM328.355 123.872C326.963 125.612 325.176 126.992 322.935 128.004L325.405 133.472C328.454 132.095 331.019 130.147 333.04 127.62L328.355 123.872ZM322.935 128.004C320.74 128.995 318.143 129.53 315.082 129.53V135.53C318.847 135.53 322.309 134.87 325.405 133.472L322.935 128.004ZM403.984 130.226L401.799 132.282L401.83 132.315L401.862 132.347L403.984 130.226ZM401.936 105.394H404.936V102.394H401.936V105.394ZM390.672 106.034L389.777 103.171L389.75 103.179L389.723 103.188L390.672 106.034ZM387.088 108.338L389.209 110.459L389.209 110.459L387.088 108.338ZM383.888 112.818L386.491 114.309L386.495 114.302L386.499 114.294L383.888 112.818ZM375.312 127.794L372.708 126.303L372.707 126.306L375.312 127.794ZM371.472 131.378L370.384 128.582L370.318 128.608L370.253 128.637L371.472 131.378ZM366.864 131.89L367.515 128.961L367.436 128.944L367.357 128.931L366.864 131.89ZM362.768 130.098L360.733 132.302L360.821 132.383L360.914 132.457L362.768 130.098ZM360.592 126.386L357.633 126.879L357.649 126.977L357.672 127.073L360.592 126.386ZM361.744 121.394L359.139 119.906L359.139 119.906L361.744 121.394ZM369.424 107.954L372.029 109.442L372.034 109.434L372.039 109.425L369.424 107.954ZM374.032 101.17L371.761 99.2091L371.754 99.2176L374.032 101.17ZM379.152 96.818L377.715 94.1843L377.689 94.1985L377.663 94.2133L379.152 96.818ZM385.424 94.898L388.025 96.3934L390.975 91.2628L385.093 91.9163L385.424 94.898ZM382.48 100.018L380.076 101.813L382.806 105.468L385.081 101.513L382.48 100.018ZM366.992 79.282L364.577 81.0616L364.582 81.0694L364.588 81.0772L366.992 79.282ZM366.48 70.706L364.19 68.7682L364.145 68.8215L364.102 68.8769L366.48 70.706ZM374.16 68.402L373.313 71.2801L373.335 71.2865L373.357 71.2926L374.16 68.402ZM378.256 71.474L375.841 73.2536L375.848 73.2638L375.856 73.274L378.256 71.474ZM394.384 92.978L391.984 94.778L392.884 95.978H394.384V92.978ZM401.936 92.978V95.978H404.936V92.978H401.936ZM403.984 69.938L406.105 72.0593L406.137 72.0272L406.168 71.9941L403.984 69.938ZM415.76 69.938L413.575 71.9941L413.638 72.0603L413.704 72.1226L415.76 69.938ZM417.936 92.978H414.936V95.978H417.936V92.978ZM425.488 92.978V95.978H426.995L427.895 94.7688L425.488 92.978ZM441.488 71.474L443.895 73.2648L443.903 73.2536L441.488 71.474ZM445.584 68.402L446.387 71.2926L446.46 71.2722L446.532 71.248L445.584 68.402ZM449.936 68.274L449.041 71.1374L449.041 71.1374L449.936 68.274ZM453.264 70.578L450.886 72.4071L450.929 72.4625L450.974 72.5158L453.264 70.578ZM452.88 79.154L455.289 80.9422L455.295 80.9336L452.88 79.154ZM437.392 100.018L434.819 101.561L437.127 105.408L439.801 101.806L437.392 100.018ZM434.32 94.898L434.651 91.9163L428.631 91.2474L431.747 96.4415L434.32 94.898ZM440.464 96.818L438.975 99.4227L439.001 99.4375L439.027 99.4517L440.464 96.818ZM445.712 101.17L443.441 103.131L443.464 103.157L443.487 103.183L445.712 101.17ZM450.448 107.954L453.063 106.484L453.063 106.483L450.448 107.954ZM458 121.394L455.384 122.864L455.39 122.873L455.395 122.882L458 121.394ZM459.024 126.386L456.095 125.735L456.081 125.8L456.069 125.865L459.024 126.386ZM456.848 130.098L458.786 132.388L458.793 132.382L458.8 132.376L456.848 130.098ZM452.88 131.89L452.387 128.931L452.307 128.944L452.229 128.961L452.88 131.89ZM448.272 131.378L449.49 128.637L449.452 128.62L449.414 128.604L448.272 131.378ZM444.56 127.794L447.165 126.306L447.163 126.303L444.56 127.794ZM435.984 112.818L433.372 114.294L433.376 114.302L433.38 114.309L435.984 112.818ZM432.656 108.338L430.451 110.373L430.533 110.461L430.621 110.542L432.656 108.338ZM429.072 106.034L428.123 108.88L428.15 108.889L428.177 108.897L429.072 106.034ZM417.936 105.394V102.394H414.936V105.394H417.936ZM415.76 130.226L417.881 132.347L417.881 132.347L415.76 130.226ZM409.872 129.274C407.839 129.274 406.743 128.742 406.105 128.105L401.862 132.347C403.955 134.44 406.785 135.274 409.872 135.274V129.274ZM406.168 128.17C405.48 127.438 404.936 126.22 404.936 124.082H398.936C398.936 127.235 399.757 130.112 401.799 132.282L406.168 128.17ZM404.936 124.082V105.394H398.936V124.082H404.936ZM401.936 102.394H395.536V108.394H401.936V102.394ZM395.536 102.394C393.444 102.394 391.506 102.63 389.777 103.171L391.567 108.897C392.568 108.584 393.873 108.394 395.536 108.394V102.394ZM389.723 103.188C387.935 103.784 386.352 104.832 384.966 106.217L389.209 110.459C390.043 109.626 390.849 109.137 391.62 108.88L389.723 103.188ZM384.966 106.217C383.675 107.508 382.454 109.259 381.276 111.342L386.499 114.294C387.541 112.452 388.452 111.216 389.209 110.459L384.966 106.217ZM381.284 111.327L372.708 126.303L377.915 129.285L386.491 114.309L381.284 111.327ZM372.707 126.306C371.936 127.655 371.132 128.291 370.384 128.582L372.559 134.174C374.884 133.27 376.64 131.517 377.917 129.282L372.707 126.306ZM370.253 128.637C369.262 129.077 368.38 129.154 367.515 128.961L366.213 134.819C368.42 135.309 370.61 135.044 372.69 134.119L370.253 128.637ZM367.357 128.931C366.305 128.755 365.41 128.359 364.621 127.739L360.914 132.457C362.515 133.715 364.351 134.513 366.371 134.849L367.357 128.931ZM364.803 127.894C364.127 127.27 363.714 126.559 363.512 125.699L357.672 127.073C358.152 129.115 359.19 130.878 360.733 132.302L364.803 127.894ZM363.551 125.893C363.441 125.232 363.555 124.271 364.349 122.882L359.139 119.906C357.884 122.101 357.231 124.468 357.633 126.879L363.551 125.893ZM364.349 122.882L372.029 109.442L366.819 106.466L359.139 119.906L364.349 122.882ZM372.039 109.425C373.507 106.813 374.935 104.726 376.31 103.122L371.754 99.2176C370.057 101.198 368.412 103.633 366.809 106.483L372.039 109.425ZM376.302 103.131C377.745 101.46 379.196 100.248 380.64 99.4227L377.663 94.2133C375.523 95.4362 373.561 97.1248 371.761 99.2091L376.302 103.131ZM380.588 99.4517C382.096 98.6296 383.806 98.0962 385.755 97.8797L385.093 91.9163C382.434 92.2118 379.963 92.9584 377.715 94.1843L380.588 99.4517ZM382.823 93.4026L379.879 98.5226L385.081 101.513L388.025 96.3934L382.823 93.4026ZM384.883 98.2227L369.395 77.4867L364.588 81.0772L380.076 101.813L384.883 98.2227ZM369.407 77.5024C368.448 76.2011 368.2 75.2779 368.2 74.674H362.2C362.2 76.9715 363.146 79.1202 364.577 81.0616L369.407 77.5024ZM368.2 74.674C368.2 73.7313 368.448 73.0683 368.858 72.5351L364.102 68.8769C362.805 70.5623 362.2 72.5447 362.2 74.674H368.2ZM368.77 72.6438C369.347 71.9619 370.018 71.5194 370.831 71.2654L369.041 65.5386C367.123 66.1379 365.49 67.2314 364.19 68.7682L368.77 72.6438ZM370.831 71.2654C371.597 71.0261 372.398 71.0108 373.313 71.2801L375.006 65.5239C373.021 64.9399 371.006 64.9246 369.041 65.5386L370.831 71.2654ZM373.357 71.2926C374.092 71.4968 374.937 72.0278 375.841 73.2536L380.671 69.6944C379.185 67.6775 377.299 66.1605 374.963 65.5114L373.357 71.2926ZM375.856 73.274L391.984 94.778L396.784 91.178L380.656 69.674L375.856 73.274ZM394.384 95.978H401.936V89.978H394.384V95.978ZM404.936 92.978V75.954H398.936V92.978H404.936ZM404.936 75.954C404.936 73.8031 405.485 72.6799 406.105 72.0593L401.862 67.8167C399.752 69.9268 398.936 72.8142 398.936 75.954H404.936ZM406.168 71.9941C406.816 71.3059 407.89 70.762 409.872 70.762V64.762C406.734 64.762 403.882 65.6687 401.799 67.8819L406.168 71.9941ZM409.872 70.762C411.854 70.762 412.928 71.3059 413.575 71.9941L417.944 67.8819C415.861 65.6687 413.01 64.762 409.872 64.762V70.762ZM413.704 72.1226C414.373 72.7524 414.936 73.8525 414.936 75.954H420.936C420.936 72.7648 420.048 69.8543 417.816 67.7534L413.704 72.1226ZM414.936 75.954V92.978H420.936V75.954H414.936ZM417.936 95.978H425.488V89.978H417.936V95.978ZM427.895 94.7688L443.895 73.2648L439.081 69.6832L423.081 91.1872L427.895 94.7688ZM443.903 73.2536C444.806 72.0278 445.651 71.4968 446.387 71.2926L444.781 65.5114C442.444 66.1605 440.559 67.6775 439.073 69.6944L443.903 73.2536ZM446.532 71.248C447.553 70.9078 448.354 70.9229 449.041 71.1374L450.831 65.4106C448.787 64.7718 446.686 64.8722 444.635 65.5559L446.532 71.248ZM449.041 71.1374C449.831 71.3844 450.418 71.7983 450.886 72.4071L455.642 68.7489C454.403 67.139 452.771 66.0169 450.831 65.4106L449.041 71.1374ZM450.974 72.5158C451.426 73.0509 451.672 73.6757 451.672 74.546H457.672C457.672 72.3443 456.979 70.3237 455.554 68.6402L450.974 72.5158ZM451.672 74.546C451.672 75.1499 451.423 76.0731 450.465 77.3744L455.295 80.9336C456.725 78.9922 457.672 76.8435 457.672 74.546H451.672ZM450.471 77.3658L434.983 98.2298L439.801 101.806L455.289 80.9422L450.471 77.3658ZM439.964 98.4745L436.892 93.3545L431.747 96.4415L434.819 101.561L439.964 98.4745ZM433.989 97.8797C435.935 98.096 437.581 98.6257 438.975 99.4227L441.952 94.2133C439.763 92.9622 437.312 92.212 434.651 91.9163L433.989 97.8797ZM439.027 99.4517C440.542 100.278 442.018 101.483 443.441 103.131L447.982 99.2091C446.163 97.1022 444.14 95.4059 441.9 94.1843L439.027 99.4517ZM443.487 103.183C444.922 104.769 446.376 106.835 447.833 109.425L453.063 106.483C451.447 103.612 449.744 101.155 447.936 99.1573L443.487 103.183ZM447.832 109.424L455.384 122.864L460.615 119.924L453.063 106.484L447.832 109.424ZM455.395 122.882C456.167 124.233 456.23 125.131 456.095 125.735L461.952 127.037C462.501 124.569 461.881 122.139 460.605 119.906L455.395 122.882ZM456.069 125.865C455.943 126.583 455.602 127.215 454.895 127.82L458.8 132.376C460.483 130.933 461.593 129.09 461.978 126.907L456.069 125.865ZM454.91 127.808C454.243 128.372 453.429 128.757 452.387 128.931L453.373 134.849C455.402 134.511 457.234 133.701 458.786 132.388L454.91 127.808ZM452.229 128.961C451.364 129.154 450.482 129.077 449.49 128.637L447.053 134.119C449.134 135.044 451.324 135.309 453.531 134.819L452.229 128.961ZM449.414 128.604C448.75 128.331 447.962 127.702 447.165 126.306L441.955 129.282C443.205 131.47 444.892 133.231 447.13 134.152L449.414 128.604ZM447.163 126.303L438.587 111.327L433.38 114.309L441.956 129.285L447.163 126.303ZM438.595 111.342C437.401 109.228 436.112 107.446 434.691 106.134L430.621 110.542C431.418 111.278 432.348 112.483 433.372 114.294L438.595 111.342ZM434.86 106.303C433.5 104.83 431.862 103.763 429.967 103.171L428.177 108.897C429.013 109.159 429.763 109.627 430.451 110.373L434.86 106.303ZM430.02 103.188C428.341 102.628 426.419 102.394 424.336 102.394V108.394C426.007 108.394 427.243 108.587 428.123 108.88L430.02 103.188ZM424.336 102.394H417.936V108.394H424.336V102.394ZM414.936 105.394V124.082H420.936V105.394H414.936ZM414.936 124.082C414.936 126.172 414.377 127.367 413.638 128.105L417.881 132.347C420.044 130.184 420.936 127.282 420.936 124.082H414.936ZM413.638 128.105C413.001 128.742 411.905 129.274 409.872 129.274V135.274C412.959 135.274 415.788 134.44 417.881 132.347L413.638 128.105ZM512.228 129.458L510.035 131.505L510.105 131.581L510.181 131.651L512.228 129.458ZM512.228 119.346L510.263 117.079L510.224 117.113L510.186 117.148L512.228 119.346ZM531.812 117.682V120.682H534.812V117.682H531.812ZM531.812 54.834V51.834H528.812V54.834H531.812ZM539.748 54.834L541.302 57.4003L550.495 51.834H539.748V54.834ZM520.932 66.226L522.435 68.8223L522.46 68.8075L522.486 68.7923L520.932 66.226ZM516.324 67.378L515.771 70.3266L515.872 70.3455L515.973 70.3575L516.324 67.378ZM512.74 65.586L510.528 67.6132L510.616 67.7093L510.713 67.7975L512.74 65.586ZM510.82 62.002L507.909 62.7296L507.909 62.7296L510.82 62.002ZM511.076 57.906L508.302 56.7638L508.284 56.8079L508.267 56.8526L511.076 57.906ZM514.404 54.322L515.907 56.9183L515.929 56.9057L515.95 56.8928L514.404 54.322ZM532.068 43.698L530.524 41.1255L530.522 41.1272L532.068 43.698ZM537.188 41.138L538.302 43.9234L538.361 43.8998L538.419 43.8738L537.188 41.138ZM546.404 41.522L544.451 43.7998L544.5 43.8414L544.55 43.881L546.404 41.522ZM548.196 117.682H545.196V120.682H548.196V117.682ZM566.372 119.346L564.33 121.544L564.368 121.579L564.407 121.613L566.372 119.346ZM566.372 129.458L564.325 127.265L564.287 127.3L564.25 127.337L566.372 129.458ZM517.476 128.25C515.806 128.25 514.862 127.813 514.275 127.265L510.181 131.651C512.154 133.492 514.709 134.25 517.476 134.25V128.25ZM514.421 127.411C513.853 126.802 513.436 125.886 513.436 124.338H507.436C507.436 127.056 508.213 129.554 510.035 131.505L514.421 127.411ZM513.436 124.338C513.436 122.641 513.882 121.904 514.269 121.544L510.186 117.148C508.184 119.007 507.436 121.598 507.436 124.338H513.436ZM514.193 121.613C514.777 121.107 515.751 120.682 517.476 120.682V114.682C514.763 114.682 512.239 115.367 510.263 117.079L514.193 121.613ZM517.476 120.682H531.812V114.682H517.476V120.682ZM534.812 117.682V54.834H528.812V117.682H534.812ZM531.812 57.834H539.748V51.834H531.812V57.834ZM538.194 52.2677L519.378 63.6597L522.486 68.7923L541.302 57.4003L538.194 52.2677ZM519.429 63.6297C518.208 64.3362 517.32 64.4746 516.674 64.3985L515.973 70.3575C518.228 70.6228 520.413 69.9931 522.435 68.8223L519.429 63.6297ZM516.877 64.4294C516.062 64.2766 515.378 63.9346 514.767 63.3745L510.713 67.7975C512.15 69.1147 513.855 69.9674 515.771 70.3266L516.877 64.4294ZM514.951 63.5588C514.355 62.9081 513.952 62.1617 513.73 61.2744L507.909 62.7296C508.37 64.5729 509.248 66.2159 510.528 67.6132L514.951 63.5588ZM513.73 61.2744C513.542 60.5215 513.578 59.7769 513.885 58.9594L508.267 56.8526C507.549 58.7657 507.415 60.7518 507.909 62.7296L513.73 61.2744ZM513.85 59.0482C514.149 58.3214 514.743 57.5921 515.907 56.9183L512.901 51.7257C510.822 52.9293 509.197 54.5893 508.302 56.7638L513.85 59.0482ZM515.95 56.8928L533.614 46.2688L530.522 41.1272L512.858 51.7512L515.95 56.8928ZM533.611 46.2705C535.192 45.3221 536.756 44.542 538.302 43.9234L536.074 38.3526C534.207 39.0993 532.357 40.0259 530.524 41.1255L533.611 46.2705ZM538.419 43.8738C539.846 43.2314 541.002 42.986 541.924 42.986V36.986C539.945 36.986 537.943 37.5086 535.957 38.4022L538.419 43.8738ZM541.924 42.986C543.105 42.986 543.876 43.3063 544.451 43.7998L548.356 39.2442C546.543 37.6897 544.326 36.986 541.924 36.986V42.986ZM544.55 43.881C544.734 44.0253 545.196 44.5195 545.196 46.258H551.196C551.196 43.5591 550.463 40.8961 548.257 39.163L544.55 43.881ZM545.196 46.258V117.682H551.196V46.258H545.196ZM548.196 120.682H561.252V114.682H548.196V120.682ZM561.252 120.682C562.99 120.682 563.865 121.112 564.33 121.544L568.413 117.148C566.489 115.361 563.951 114.682 561.252 114.682V120.682ZM564.407 121.613C564.84 121.988 565.292 122.703 565.292 124.338H571.292C571.292 121.536 570.464 118.922 568.337 117.079L564.407 121.613ZM565.292 124.338C565.292 125.961 564.844 126.781 564.325 127.265L568.419 131.651C570.46 129.746 571.292 127.152 571.292 124.338H565.292ZM564.25 127.337C563.778 127.809 562.934 128.25 561.252 128.25V134.25C564.007 134.25 566.576 133.496 568.493 131.579L564.25 127.337ZM561.252 128.25H517.476V134.25H561.252V128.25Z" fill="black"/>
<defs>
<filter id="filter0_d_108_68" x="0" y="13.4543" width="725" height="166.357" filterUnits="userSpaceOnUse" color-interpolation-filters="sRGB">
<feFlood flood-opacity="0" result="BackgroundImageFix"/>
<feColorMatrix in="SourceAlpha" type="matrix" values="0 0 0 0 0 0 0 0 0 0 0 0 0 0 0 0 0 0 127 0" result="hardAlpha"/>
<feOffset dx="10" dy="10"/>
<feGaussianBlur stdDeviation="2"/>
<feComposite in2="hardAlpha" operator="out"/>
<feColorMatrix type="matrix" values="0 0 0 0 0 0 0 0 0 0 0 0 0 0 0 0 0 0 0.45 0"/>
<feBlend mode="normal" in2="BackgroundImageFix" result="effect1_dropShadow_108_68"/>
<feBlend mode="normal" in="SourceGraphic" in2="effect1_dropShadow_108_68" result="shape"/>
</filter>
</defs>
</svg>
