<svg width="50" height="50" viewBox="0 0 50 50" fill="none" xmlns="http://www.w3.org/2000/svg">
<circle cx="25" cy="25" r="25" fill="#F7FE00"/>
<path d="M18.0974 41C17.2654 41 16.6094 40.776 16.1294 40.328C15.6814 39.848 15.4574 39.208 15.4574 38.408C15.4574 37.576 15.6814 36.952 16.1294 36.536C16.6094 36.12 17.2654 35.912 18.0974 35.912H23.4734V12.344H26.4494L19.3934 16.616C18.7854 16.968 18.2094 17.112 17.6654 17.048C17.1534 16.952 16.7054 16.728 16.3214 16.376C15.9694 15.992 15.7294 15.544 15.6014 15.032C15.4734 14.52 15.5054 14.008 15.6974 13.496C15.9214 12.952 16.3374 12.504 16.9454 12.152L23.5694 8.168C24.2094 7.784 24.8494 7.464 25.4894 7.208C26.1294 6.92 26.7214 6.776 27.2654 6.776C27.9374 6.776 28.4974 6.968 28.9454 7.352C29.3934 7.704 29.6174 8.296 29.6174 9.128V35.912H34.5134C35.3454 35.912 35.9854 36.12 36.4334 36.536C36.9134 36.952 37.1534 37.576 37.1534 38.408C37.1534 39.24 36.9134 39.88 36.4334 40.328C35.9854 40.776 35.3454 41 34.5134 41H18.0974Z" fill="black"/>
</svg>
