<svg width="50" height="50" viewBox="0 0 50 50" fill="none" xmlns="http://www.w3.org/2000/svg">
<circle cx="25" cy="25" r="25" fill="#F7FE00"/>
<path d="M16.9934 41C15.9694 41 15.2174 40.776 14.7374 40.328C14.2894 39.848 14.0654 39.16 14.0654 38.264C14.0654 37.72 14.2094 37.192 14.4974 36.68C14.7854 36.168 15.2014 35.624 15.7454 35.048L25.3934 24.776C26.8654 23.24 27.9214 21.848 28.5614 20.6C29.2014 19.32 29.5214 18.04 29.5214 16.76C29.5214 15.16 29.0094 13.944 27.9854 13.112C26.9934 12.28 25.5374 11.864 23.6174 11.864C22.5294 11.864 21.4414 12.024 20.3534 12.344C19.2654 12.632 18.1614 13.144 17.0414 13.88C16.4654 14.264 15.9214 14.424 15.4094 14.36C14.9294 14.296 14.4974 14.088 14.1134 13.736C13.7614 13.384 13.5214 12.952 13.3934 12.44C13.2654 11.928 13.2814 11.416 13.4414 10.904C13.6334 10.36 14.0174 9.896 14.5934 9.512C15.9694 8.584 17.5054 7.88 19.2014 7.4C20.9294 6.92 22.6574 6.68 24.3854 6.68C26.8174 6.68 28.8654 7.048 30.5294 7.784C32.1934 8.52 33.4574 9.592 34.3214 11C35.1854 12.408 35.6174 14.12 35.6174 16.136C35.6174 17.48 35.3934 18.792 34.9454 20.072C34.5294 21.352 33.8734 22.648 32.9774 23.96C32.1134 25.272 30.9774 26.664 29.5694 28.136L20.5454 37.544V35.912H34.6574C35.5214 35.912 36.1774 36.12 36.6254 36.536C37.0734 36.952 37.2974 37.576 37.2974 38.408C37.2974 39.24 37.0734 39.88 36.6254 40.328C36.1774 40.776 35.5214 41 34.6574 41H16.9934Z" fill="black"/>
</svg>
