<svg width="50" height="50" viewBox="0 0 50 50" fill="none" xmlns="http://www.w3.org/2000/svg">
<circle cx="25" cy="25" r="25" fill="#F7FE00"/>
<path d="M24.3374 41.48C22.6094 41.48 20.8174 41.256 18.9614 40.808C17.1054 40.36 15.4894 39.688 14.1134 38.792C13.4734 38.376 13.0414 37.896 12.8174 37.352C12.5934 36.808 12.5294 36.296 12.6254 35.816C12.7534 35.304 12.9934 34.872 13.3454 34.52C13.7294 34.168 14.1934 33.96 14.7374 33.896C15.3134 33.832 15.9374 33.976 16.6094 34.328C17.9214 35.032 19.1854 35.544 20.4014 35.864C21.6174 36.152 22.8654 36.296 24.1454 36.296C25.5534 36.296 26.7374 36.104 27.6974 35.72C28.6574 35.336 29.3774 34.76 29.8574 33.992C30.3694 33.224 30.6254 32.296 30.6254 31.208C30.6254 29.608 30.0814 28.424 28.9934 27.656C27.9374 26.856 26.3854 26.456 24.3374 26.456H21.2654C20.3694 26.456 19.6814 26.232 19.2014 25.784C18.7534 25.336 18.5294 24.712 18.5294 23.912C18.5294 23.112 18.7534 22.488 19.2014 22.04C19.6814 21.592 20.3694 21.368 21.2654 21.368H23.7614C24.9774 21.368 26.0174 21.176 26.8814 20.792C27.7454 20.376 28.4174 19.8 28.8974 19.064C29.3774 18.328 29.6174 17.432 29.6174 16.376C29.6174 14.904 29.1214 13.784 28.1294 13.016C27.1694 12.248 25.7614 11.864 23.9054 11.864C22.7214 11.864 21.6014 12.008 20.5454 12.296C19.5214 12.552 18.3854 13.048 17.1374 13.784C16.5614 14.136 16.0014 14.28 15.4574 14.216C14.9454 14.152 14.5134 13.944 14.1614 13.592C13.8094 13.24 13.5694 12.824 13.4414 12.344C13.3134 11.832 13.3454 11.32 13.5374 10.808C13.7294 10.264 14.1294 9.8 14.7374 9.416C16.1134 8.52 17.6334 7.848 19.2974 7.4C20.9614 6.92 22.6734 6.68 24.4334 6.68C26.7694 6.68 28.7694 7.048 30.4334 7.784C32.0974 8.488 33.3614 9.512 34.2254 10.856C35.1214 12.168 35.5694 13.768 35.5694 15.656C35.5694 17 35.3134 18.232 34.8014 19.352C34.2894 20.44 33.5694 21.368 32.6414 22.136C31.7134 22.904 30.5934 23.448 29.2814 23.768V23.192C31.5854 23.576 33.3774 24.536 34.6574 26.072C35.9374 27.576 36.5774 29.464 36.5774 31.736C36.5774 33.72 36.0814 35.448 35.0894 36.92C34.0974 38.392 32.6894 39.528 30.8654 40.328C29.0414 41.096 26.8654 41.48 24.3374 41.48Z" fill="black"/>
</svg>
