<svg width="50" height="50" viewBox="0 0 50 50" fill="none" xmlns="http://www.w3.org/2000/svg">
<circle cx="25" cy="25" r="25" fill="#F7FE00"/>
<path d="M30.9334 42.384C29.9734 42.384 29.2214 42.128 28.6774 41.616C28.1334 41.072 27.8614 40.304 27.8614 39.312V35.568H16.0054C15.0134 35.568 14.2134 35.36 13.6054 34.944C13.0294 34.528 12.7414 33.872 12.7414 32.976C12.7414 32.464 12.8694 31.904 13.1254 31.296C13.4134 30.688 13.9094 29.888 14.6134 28.896L27.7654 9.84C28.2134 9.168 28.7094 8.656 29.2534 8.304C29.7974 7.952 30.4214 7.776 31.1254 7.776C31.9574 7.776 32.6454 8.032 33.1894 8.544C33.7334 9.024 34.0054 9.792 34.0054 10.848V30.48H36.3574C37.2854 30.48 37.9734 30.704 38.4214 31.152C38.9014 31.568 39.1414 32.192 39.1414 33.024C39.1414 33.856 38.9014 34.496 38.4214 34.944C37.9734 35.36 37.2854 35.568 36.3574 35.568H34.0054V39.312C34.0054 40.304 33.7334 41.072 33.1894 41.616C32.6454 42.128 31.8934 42.384 30.9334 42.384ZM27.8614 30.48V15.504H29.2534L17.9254 32.112V30.48H27.8614Z" fill="black"/>
</svg>
