<svg width="50" height="50" viewBox="0 0 50 50" fill="none" xmlns="http://www.w3.org/2000/svg">
<circle cx="25" cy="25" r="25" fill="#F7FE00"/>
<path d="M25.2974 41.48C23.6014 41.48 21.8734 41.256 20.1134 40.808C18.3534 40.36 16.7374 39.672 15.2654 38.744C14.6574 38.36 14.2414 37.912 14.0174 37.4C13.8254 36.856 13.7774 36.328 13.8734 35.816C14.0014 35.272 14.2414 34.824 14.5934 34.472C14.9774 34.088 15.4254 33.864 15.9374 33.8C16.4814 33.736 17.0734 33.88 17.7134 34.232C18.8974 34.904 20.0974 35.416 21.3134 35.768C22.5294 36.12 23.8254 36.296 25.2014 36.296C26.5454 36.296 27.6974 36.056 28.6574 35.576C29.6174 35.096 30.3534 34.424 30.8654 33.56C31.3774 32.696 31.6334 31.688 31.6334 30.536C31.6334 28.744 31.0894 27.304 30.0014 26.216C28.9134 25.096 27.4254 24.536 25.5374 24.536C24.5134 24.536 23.5214 24.712 22.5614 25.064C21.6014 25.384 20.6574 25.96 19.7294 26.792C19.4414 27.048 19.0734 27.304 18.6254 27.56C18.1774 27.784 17.6974 27.896 17.1854 27.896C16.3854 27.896 15.7774 27.688 15.3614 27.272C14.9454 26.856 14.7374 26.28 14.7374 25.544V9.848C14.7374 8.984 14.9614 8.328 15.4094 7.88C15.8894 7.4 16.5614 7.16 17.4254 7.16H33.2174C34.0814 7.16 34.7374 7.384 35.1854 7.832C35.6654 8.248 35.9054 8.872 35.9054 9.704C35.9054 10.504 35.6654 11.128 35.1854 11.576C34.7374 12.024 34.0814 12.248 33.2174 12.248H20.7374V23H19.1534C19.9854 21.88 21.0894 21.016 22.4654 20.408C23.8414 19.8 25.3454 19.496 26.9774 19.496C29.1214 19.496 30.9774 19.96 32.5454 20.888C34.1454 21.784 35.3774 23.048 36.2414 24.68C37.1374 26.28 37.5854 28.152 37.5854 30.296C37.5854 32.504 37.0894 34.456 36.0974 36.152C35.1054 37.816 33.6814 39.128 31.8254 40.088C30.0014 41.016 27.8254 41.48 25.2974 41.48Z" fill="black"/>
</svg>
