<svg width="65" height="47" viewBox="0 0 65 47" fill="none" xmlns="http://www.w3.org/2000/svg">
<g clip-path="url(#clip0_99_8)">
<path opacity="0.996" fill-rule="evenodd" clip-rule="evenodd" d="M1.13752 -0.162048C1.67919 -0.162048 2.22086 -0.162048 2.76252 -0.162048C6.15562 1.90998 9.6223 3.90883 13.1625 5.8345C14.8958 6.48278 16.6292 6.48278 18.3625 5.8345C25.0837 2.39439 32.1254 1.53002 39.4875 3.2414C42.5357 4.41167 45.6232 5.43812 48.75 6.32071C49.6678 6.14117 50.5885 5.9791 51.5125 5.8345C55.0527 3.90883 58.5195 1.90998 61.9125 -0.162048C62.4543 -0.162048 62.9957 -0.162048 63.5375 -0.162048C64.1193 0.412402 64.5525 1.06068 64.8375 1.78278C64.8375 3.29543 64.8375 4.80806 64.8375 6.32071C64.0101 9.4255 62.3851 12.0726 59.9625 14.2621C58.7187 15.0198 57.5273 15.8301 56.3875 16.6931C60.0633 21.1551 61.6883 26.2873 61.2625 32.0897C60.7318 34.5453 59.7025 36.7602 58.175 38.7345C51.8304 45.5839 44.3554 47.2046 35.75 43.5966C34.8871 44.7272 33.9661 45.8078 32.9875 46.838C32.5543 46.838 32.1208 46.838 31.6875 46.838C30.7088 45.8078 29.788 44.7272 28.925 43.5966C20.9703 47.1498 13.9286 45.8532 7.80002 39.7069C7.6917 39.8149 7.58335 39.9231 7.47502 40.0311C3.34619 34.2248 2.58786 27.9581 5.20002 21.2311C6.03849 19.5853 7.06764 18.0727 8.28752 16.6931C6.25618 15.3787 4.36032 13.8661 2.60002 12.1552C1.40081 10.305 0.479978 8.36022 -0.162476 6.32071C-0.162476 4.80806 -0.162476 3.29543 -0.162476 1.78278C0.122568 1.06068 0.555901 0.412402 1.13752 -0.162048Z" fill="#060606"/>
<path fill-rule="evenodd" clip-rule="evenodd" d="M3.73755 5.02411C6.16481 6.2888 8.54813 7.63938 10.8875 9.07583C13.4293 9.86524 16.0293 10.0813 18.6875 9.72411C21.3641 8.65932 24.0724 7.6869 26.8126 6.80687C30.9551 6.07992 35.0718 6.18796 39.1626 7.13101C41.4629 7.93172 43.7379 8.7961 45.9876 9.72411C49.1742 10.2452 52.2074 9.81302 55.0876 8.42756C56.9563 7.2523 58.8524 6.11782 60.7751 5.02411C60.5375 7.75938 59.2918 9.97431 57.0376 11.6689C54.4931 12.9915 52.0014 14.3961 49.5626 15.8827C42.5855 17.3055 36.8437 20.7089 32.3376 26.0931C28.0508 20.8185 22.5258 17.5231 15.7625 16.2069C13.1067 14.6121 10.3984 13.0994 7.63755 11.6689C5.43831 9.96559 4.13831 7.75063 3.73755 5.02411Z" fill="#3DD43C"/>
<path fill-rule="evenodd" clip-rule="evenodd" d="M11.5375 18.6379C13.0202 19.0531 14.4286 19.6474 15.7625 20.4207C12.8998 22.3474 11.3831 25.0486 11.2125 28.5241C12.6137 35.9764 17.0553 39.0019 24.5375 37.6C25.0936 38.4392 25.6895 39.2495 26.325 40.031C26.5485 40.3007 26.4943 40.5166 26.1625 40.6793C17.0228 43.334 10.902 40.2006 7.79999 31.2793C6.98261 26.4341 8.22847 22.2203 11.5375 18.6379Z" fill="#3DD43C"/>
<path fill-rule="evenodd" clip-rule="evenodd" d="M52.1626 18.6379C52.5045 18.5895 52.8295 18.6435 53.1376 18.8C56.4792 22.3173 57.7253 26.4771 56.8751 31.2793C53.7729 40.2005 47.6522 43.334 38.5126 40.6793C38.1807 40.5166 38.1265 40.3007 38.3501 40.031C38.9854 39.2495 39.5815 38.4392 40.1376 37.6C47.6197 39.0019 52.0615 35.9764 53.4626 28.5241C53.2919 25.0485 51.7752 22.3474 48.9126 20.4207C50.0335 19.8537 51.117 19.2594 52.1626 18.6379Z" fill="#3DD43C"/>
<path fill-rule="evenodd" clip-rule="evenodd" d="M19.0124 22.8517C25.3228 22.6929 27.5436 25.6102 25.6749 31.6035C22.6294 34.9093 19.4878 35.0173 16.2499 31.9276C14.1932 27.9802 15.1141 24.9549 19.0124 22.8517Z" fill="#CDA100"/>
<path fill-rule="evenodd" clip-rule="evenodd" d="M42.0875 22.8517C46.4185 22.3657 48.9099 24.2565 49.5625 28.5241C49.0259 32.5178 46.7509 34.3544 42.7375 34.0345C38.6578 32.64 37.3038 29.8848 38.675 25.7689C39.4771 24.3747 40.6146 23.4023 42.0875 22.8517Z" fill="#CDA100"/>
<path fill-rule="evenodd" clip-rule="evenodd" d="M19.6625 25.4448C20.6977 25.2891 21.6185 25.5052 22.425 26.0931C22.6417 27.7138 22.6417 29.3345 22.425 30.9552C21.2238 31.9033 20.1405 31.7953 19.175 30.6311C18.8508 28.8322 19.0133 27.1035 19.6625 25.4448Z" fill="#060606"/>
<path fill-rule="evenodd" clip-rule="evenodd" d="M42.7375 25.4448C43.5035 25.3919 44.2617 25.4459 45.0125 25.6069C45.2159 25.8501 45.3784 26.1203 45.5 26.4172C45.7167 27.8218 45.7167 29.2264 45.5 30.631C44.5344 31.7952 43.4512 31.9033 42.25 30.9552C42.185 29.5765 42.0225 28.2259 41.7625 26.9034C42.0504 26.3801 42.3754 25.8938 42.7375 25.4448Z" fill="#070707"/>
<path fill-rule="evenodd" clip-rule="evenodd" d="M30.0625 29.9828C30.7167 30.6302 31.475 31.1704 32.3375 31.6035C33.1887 31.2393 33.8926 30.6991 34.45 29.9828C34.8302 31.8829 35.6427 33.5577 36.8875 35.0069C35.9092 37.4376 34.3925 39.4363 32.3375 41.0035C30.2284 39.4619 28.7117 37.4629 27.7875 35.0069C29.0783 33.5772 29.8367 31.9024 30.0625 29.9828Z" fill="#186218"/>
</g>
<defs>
<clipPath id="clip0_99_8">
<rect width="65" height="47" fill="white"/>
</clipPath>
</defs>
</svg>
