<svg width="1372" height="326" viewBox="0 0 1372 326" fill="none" xmlns="http://www.w3.org/2000/svg">
<path d="M1152 68L1139.68 94.5359C1138.85 95.9708 1140.02 98 1141.68 98H1168.32C1169.98 98 1171.15 95.9708 1170.32 94.5359L1158 68H1152ZM656.679 296C655.023 296 653.851 298.029 654.679 299.464L668 322.536C668.828 323.971 671.172 323.971 672 322.536L685.321 299.464C686.149 298.029 684.977 296 683.321 296H656.679ZM1158 71V67H1152V71H1158ZM1179 46H1344V40H1179V46ZM1365 67V222H1371V67H1365ZM1344 243H694V249H1344V243ZM667 270V299H673V270H667ZM694 243C679.088 243 667 255.088 667 270H673C673 258.402 682.402 249 694 249V243ZM1365 222C1365 233.598 1355.6 243 1344 243V249C1358.91 249 1371 236.912 1371 222H1365ZM1344 46C1355.6 46 1365 55.402 1365 67H1371C1371 52.0883 1358.91 40 1344 40V46ZM1158 67C1158 55.402 1167.4 46 1179 46V40C1164.09 40 1152 52.0883 1152 67H1158Z" fill="url(#paint0_linear_117_8)"/>
<path d="M199.5 215L211.821 188.464C212.649 187.029 211.477 185 209.821 185H183.179C181.523 185 180.351 187.029 181.179 188.464L193.5 215H199.5ZM683.821 30C685.477 30 686.649 27.9708 685.821 26.5359L672.5 3.4641C671.672 2.02922 669.328 2.02922 668.5 3.4641L655.179 26.5359C654.351 27.9708 655.523 30 657.179 30H683.821ZM193.5 212V220H199.5V212H193.5ZM172.5 241H27V247H172.5V241ZM6 220V96H0V220H6ZM27 75H646.5V69H27V75ZM673.5 48V27H667.5V48H673.5ZM646.5 75C661.412 75 673.5 62.9117 673.5 48H667.5C667.5 59.598 658.098 69 646.5 69V75ZM6 96C6 84.402 15.402 75 27 75V69C12.0883 69 0 81.0883 0 96H6ZM27 241C15.402 241 6 231.598 6 220H0C0 234.912 12.0883 247 27 247V241ZM193.5 220C193.5 231.598 184.098 241 172.5 241V247C187.412 247 199.5 234.912 199.5 220H193.5Z" fill="url(#paint1_linear_117_8)"/>
<defs>
<linearGradient id="paint0_linear_117_8" x1="67.4942" y1="0.000147021" x2="67.4942" y2="69.2581" gradientUnits="userSpaceOnUse">
<stop/>
<stop offset="0.953125" stop-color="#CEA100"/>
</linearGradient>
<linearGradient id="paint1_linear_117_8" x1="433.5" y1="0" x2="433.5" y2="98" gradientUnits="userSpaceOnUse">
<stop offset="0.320833" stop-color="#009D00"/>
<stop offset="0.982292"/>
</linearGradient>
</defs>
</svg>
